<?xml version="1.0" encoding="utf-8"?>
<!-- Generator: Adobe Illustrator 24.2.1, SVG Export Plug-In . SVG Version: 6.00 Build 0)  -->
<svg version="1.1" id="Слой_1" xmlns="http://www.w3.org/2000/svg" xmlns:xlink="http://www.w3.org/1999/xlink" x="0px" y="0px"
	 viewBox="0 0 531 276" style="enable-background:new 0 0 531 276;" xml:space="preserve">
<style type="text/css">
	.st0{fill:#7DBCBB;}
	.st1{fill:#EFEFEF;stroke:#79B2AF;stroke-miterlimit:10;}
	.st2{fill:#7BA8AA;}
	.st3{fill:#76A6AD;}
	.st4{fill:#6C9093;}
	.st5{fill:#FFFFFF;}
	.st6{stroke:#000000;stroke-miterlimit:10;}
	.st7{fill:#1D1D1B;}
</style>
<g id="Слой_3">
	<g>
		<path class="st0" d="M495.8,226.5H310.5c-6.2,0-11.2-5.4-11.2-12.1v-7.1V46.6c0-6.7,5-12,11.2-12h185.4c6.2,0,11.2,5.4,11.2,12
			v167.8C507,221.1,502,226.5,495.8,226.5z"/>
		<path class="st1" d="M474.5,201.5H331.8c-9.4,0-17-8.2-17-18.5V68.7c0-10.3,7.6-18.5,17-18.5h142.8c9.4,0,17,8.2,17,18.5V183
			C491.6,193.3,484,201.5,474.5,201.5z"/>
		<rect x="377.3" y="226.5" class="st2" width="53.3" height="19.1"/>
		<path class="st0" d="M443.6,253.4h-78.3c-2.1,0-3.6-1.7-3.6-3.9l0,0c0-2.2,1.5-3.9,3.6-3.9h78.3c2.1,0,3.6,1.7,3.6,3.9l0,0
			C447.2,251.8,445.7,253.4,443.6,253.4z"/>
		<path class="st3" d="M315.1,219.6l178.7,1.1c0.5-0.2,0.9-0.2,1.4-0.4c0.5-0.2,1-0.2,1.5-0.4c0.9-0.6,2.4-1.5,3.6-3.4
			c1.5-2.4,1.9-4.7,2.1-5.8c0-0.7,0.2-1.7,0.2-2.4V46.1c0-1.1,0-2.6-0.5-4.3c-0.7-2.6-1.9-4.5-2.6-5.4c-0.5-0.4-1-0.9-1.5-1.3
			c0.5,0,1,0.2,1.7,0.4c0.3,0.2,0.7,0.4,1,0.6c0.7,0.4,1.4,0.7,1.9,1.3c0.7,0.6,1.4,1.3,2.1,2.2c2.6,3.5,2.4,7.7,2.2,9.3
			c0,50.3,0,100.5,0,150.9c0,5.2,0,10.5,0,15.7c0,0.9-0.2,2.1-0.7,3.5c-0.5,1.7-1.4,2.8-2.1,3.5c-0.5,0.7-1.7,1.9-3.3,2.8
			c-1.5,0.9-2.9,1.1-3.8,1.3c-62.2,0-124.4,0-186.6,0c-1.2,0-3.6-0.2-6.2-2.1c-1.4-0.9-2.2-2.1-2.7-2.8c-0.9-1.3-1.4-2.4-1.4-2.6
			c-0.7-1.7-0.9-3.4-0.7-4.5c2.2,1.7,6,4.3,11.2,4.9C312.4,219.6,313.7,219.6,315.1,219.6z"/>
		<path class="st3" d="M391.6,239.1"/>
		<path class="st4" d="M430.6,234.4c-2.6-0.6-5.8-1.1-9.6-1.7c0,0-1.9-0.4-3.8-0.6c-4.8-0.6-19.8-1.3-39.7-0.9c0-1.5,0-3,0-4.7h53.3
			C430.6,229.2,430.6,231.8,430.6,234.4z"/>
		<path class="st4" d="M435.9,236.4"/>
		<path class="st1" d="M522.7,116.7"/>
		<path class="st5" d="M323.4,82c-0.7-0.6-1.2-1.3-1.4-2.2c-0.3-2.8,0-3.9,0.3-8.2c0.2-3-0.2-4.7,0.7-7.5c0.2-0.6,0.3-1.1,0.5-1.5
			c1.9-4.5,14.4-3.4,15.8-3.4c3.6,0,7,0.2,10.8,0.2l2.2,0.7c1.7,0.6,2.6,2.8,1.7,4.7l0,0c-1.5,3-5.7,4.5-10.1,3.7
			c-0.5,0-0.9,0-1.4,0c-1.5,0.4-3.6,1.3-5.8,3c-3.4,2.8-5,6.2-5.7,7.7c-0.9,2.1-2.7,3.5-4.6,3.5C325.1,82.9,324,82.3,323.4,82z"/>
		<path class="st5" d="M322.1,89.4c0.2,18.3,0.3,36.4,0.5,54.5c0,0.2,0.2,2.1,1.7,3c1.7,0.9,4.5,0.6,6.2-1.3c0.2-1.5,0.5-3,0.9-4.5
			c-0.5-7.8-1.2-15.5-1.7-23.4c-0.7-9.5-1.4-18.9-2.1-28.4c-0.3-0.9-1.5-1.7-2.6-1.7C323.7,87.7,322.7,88.5,322.1,89.4z"/>
		<path class="st6" d="M393.3,64.4c5-2.1,12,0.2,13.4,5.6c1.4,5-2.6,10.5-7,12.1c-5,1.9-11.7-0.7-12.9-6.2
			C385.5,71.1,389.2,66.1,393.3,64.4z"/>
		<path class="st6" d="M408.1,80.8l24.1,15.7l0.2,0.2v26.9c0,0.2-0.2,0.4-0.3,0.4h-8.8c-0.2,0-0.3-0.2-0.3-0.4v-21.1
			c0-0.2,0-0.2-0.2-0.2l-8.2-5.4c-0.2-0.2-0.3,0-0.3,0.2v28.8v0.2l-24.4,27.8c0,0,0,0,0,0.2l-6.5,29.1c0,0.2-0.2,0.2-0.3,0.2
			l-11.7-3c-0.2,0-0.2-0.2-0.2-0.4l8.1-37v-0.2l16-17.2v-0.2V88.3c0-0.2,0-0.2,0.2-0.2l12.5-7.5C407.9,80.8,407.9,80.8,408.1,80.8z"
			/>
		<path class="st6" d="M389.8,101.6L372,121c-0.2,0.2-0.2,0.6,0,0.7l5.7,6.7c0.2,0.2,0.5,0.2,0.7,0l12.4-12.1
			c0.2-0.2,0.2-0.2,0.2-0.4v-14C390.7,101.4,390.2,101.2,389.8,101.6z"/>
		<path class="st6" d="M407.4,139.7l7-7.3c0.5-0.4,1.2-0.4,1.5,0.2l23.9,45.4c0.3,0.6,0.2,1.1-0.3,1.5l-7.7,5
			c-0.5,0.4-1,0.2-1.4-0.4l-23.2-43C406.9,140.6,407,140,407.4,139.7z"/>
		<ellipse cx="376.8" cy="183" rx="7.4" ry="7.8"/>
		<ellipse cx="435.4" cy="182.1" rx="6.4" ry="6.9"/>
		<ellipse cx="374.2" cy="125.3" rx="5.3" ry="6"/>
		<path d="M433.1,125.3c0,3.4-2.6,6-5.7,6c-2.6,0-4.1-2.1-4.3-2.1c-0.2-0.4-1.4-1.9-1.4-3.7c0-2.8,2.2-6,5.7-6
			C430.7,119.5,433.1,122.1,433.1,125.3z"/>
	</g>
	<path class="st7" d="M47.6,188.6h-6.2c-4.8,0-8.8-4.3-8.8-9.5V95c0-5.2,4-9.5,8.8-9.5h6.2c4.8,0,8.8,4.3,8.8,9.5v84.1
		C56.4,184.3,52.4,188.6,47.6,188.6z"/>
	<ellipse class="st7" cx="44.5" cy="67.8" rx="10.5" ry="10.8"/>
	<path class="st7" d="M73.2,152.6c0.3,7.7,1,22,10.5,29.1c4.8,3.7,10.1,4.1,11.9,4.1c12.7,0.9,21.3-9.3,22.9-11.4
		c1-1.1,7.6-9.3,7.4-20.5c0-3.5-0.2-8-3.4-11c-2.7-2.6-7.6-3.9-10.5-1.9c-3.6,2.6-0.7,8.4-4.5,15.5c-1.9,3.5-4.6,5.8-6.5,7.1l0,0
		c-0.3,0-3.6,0.4-6.2-2.2c-2.7-2.8-2.2-6.4-2.2-6.7V53.9c0-5.2-3.3-9.5-7.4-9.5c-4,0.2-7.7,0.4-11.7,0.6
		C72,93.3,72.2,131.5,73.2,152.6z"/>
	<path class="st7" d="M99.5,88.7H67.7c-4.6,0-8.6-3.9-8.6-8.8c0-4.9,3.8-8.8,8.6-8.8h31.8c4.6,0,8.6,3.9,8.6,8.8
		S104.1,88.7,99.5,88.7z"/>
	<ellipse class="st7" cx="160.5" cy="134.4" rx="31.3" ry="41.7"/>
	<path class="st7" d="M191.1,201.1c-0.3,7.7-1,22-10.1,29.1c-4.6,3.7-9.8,4.1-11.5,4.1c-12.4,0.9-20.4-9.3-22-11.4
		c-0.9-1.1-7.2-9.3-7.2-20.5c0-3.5,0.2-8,3.3-11c2.6-2.6,7.4-3.9,10-1.9c3.4,2.6,0.7,8.4,4.3,15.5c1.9,3.5,4.5,5.8,6.4,7.1
		c0.3,0,3.6,0.4,6-2.2c2.6-2.8,2.1-6.4,2.1-6.7c-0.3-15.7,0.2-28.4,0.7-37.4c1.2-17.2,3.1-29.3,1.4-48c-0.5-6.5-1.5-11.8-2.1-15.3
		c0.2-0.6,0.7-9.9,7-9.5c3.8,0.2,7.6,0.4,11.3,0.6C192.3,142.1,191.9,180,191.1,201.1z"/>
	<ellipse class="st5" cx="160.1" cy="134.4" rx="14.9" ry="25.2"/>
	<ellipse class="st7" cx="230.4" cy="140.2" rx="33.5" ry="45.4"/>
	<ellipse class="st5" cx="230.2" cy="140.2" rx="16" ry="27.6"/>
</g>
<g id="Слой_2_1_">
</g>
</svg>
