<?xml version="1.0" encoding="utf-8"?>
<!-- Generator: Adobe Illustrator 24.2.1, SVG Export Plug-In . SVG Version: 6.00 Build 0)  -->
<svg version="1.1" id="Слой_1" xmlns="http://www.w3.org/2000/svg" xmlns:xlink="http://www.w3.org/1999/xlink" x="0px" y="0px"
	 viewBox="0 0 569.5 276" style="enable-background:new 0 0 569.5 276;" xml:space="preserve">
<style type="text/css">
	.st0{fill:#2F2F2F;}
	.st1{fill:#E9E9E9;}
	.st2{fill:#7DBCBB;}
	.st3{fill:#EFEFEF;stroke:#79B2AF;stroke-miterlimit:10;}
	.st4{fill:#7BA8AA;}
	.st5{fill:#76A6AD;}
	.st6{fill:#6C9093;}
	.st7{fill:#FFFFFF;}
	.st8{fill:#2F2F2F;stroke:#2F2F2F;stroke-miterlimit:10;}
</style>
<path class="st0" d="M51.8,188.3c-3.5,0.1-6.9,0.2-10.4,0.3c-1.1,0.1-2-0.1-2.6-0.4c-2.9-1.1-4.8-4.7-4.9-9.1
	c-0.4-28-0.9-56.1-1.3-84.1c0-5.2,4-9.5,8.8-9.5h6.2c4.8,0,8.8,4.3,8.8,9.5c0.8,28,1.6,55.9,2.4,83.9c0,0.6,0.1,4.3-2.7,7.1
	C54.5,187.6,52.7,188.1,51.8,188.3z"/>
<path class="st0" d="M44.5,57C49,57.7,55,61.4,55,67.8c0,6-4.7,10.8-10.5,10.8c-7.7,0-10.3-10.1-10.5-10.8c-0.4-1.6-1.1-4.7,0.6-7.4
	C36.8,56.9,41.7,56.6,44.5,57z"/>
<path class="st0" d="M73.2,152.6c0.3,7.7,1,22,10.5,29.1c4.8,3.7,10.1,4.1,11.9,4.1c12.7,0.9,21.3-9.3,22.9-11.4
	c1-1.1,7.6-9.3,7.4-20.5c0-3.5-0.2-8-3.4-11c-2.7-2.6-7.6-3.9-10.5-1.9c-3.6,2.6-0.7,8.4-4.5,15.5c-1.9,3.5-4.6,5.8-6.5,7.1l0,0
	c-0.3,0-3.6,0.4-6.2-2.2c-2.7-2.8-2.2-6.4-2.2-6.7V53.9c0-5.2-3.3-9.5-7.4-9.5c-2,0.1-3.8,0.2-5.7,0.3c-3.4,0.2-6.1,2.9-6.2,6.3
	C72,96.5,72.2,132.4,73.2,152.6z"/>
<path class="st0" d="M99.5,88.7H67.7c-4.6,0-8.6-3.9-8.6-8.8s3.8-8.8,8.6-8.8h31.8c4.6,0,8.6,3.9,8.6,8.8S104.1,88.7,99.5,88.7z"/>
<path class="st0" d="M191.1,201.1c-0.3,7.7-1,22-10.1,29.1c-4.6,3.7-9.8,4.1-11.5,4.1c-12.4,0.9-20.4-9.3-22-11.4
	c-0.9-1.1-7.2-9.3-7.2-20.5c0-3.5,0.2-8,3.3-11c2.6-2.6,7.4-3.9,10-1.9c3.4,2.6,0.7,8.4,4.3,15.5c1.1,2,2.5,3.7,3.8,5
	c2.3,2.2,5.8,2.5,8.2,0.4c0.2-0.1,0.3-0.3,0.5-0.5c2.6-2.8,2.1-6.4,2.1-6.7c-0.3-15.7,0.2-28.4,0.7-37.4c1.2-17.2,3.1-29.3,1.4-48
	c-0.5-5.9-1.3-10.8-1.9-14.3c-0.1-0.6-0.1-1.3,0-1.9c0.4-2.5,1.6-8.9,6.8-8.6c1.9,0.1,3.8,0.2,5.7,0.3c3.2,0.2,5.7,2.7,5.8,5.9
	C192.3,145,191.9,180.8,191.1,201.1z"/>
<ellipse class="st0" cx="160.5" cy="134.4" rx="31.3" ry="41.7"/>
<ellipse class="st1" cx="160.1" cy="134.4" rx="14.9" ry="25.2"/>
<ellipse class="st0" cx="230.4" cy="140.2" rx="33.5" ry="45.4"/>
<ellipse class="st1" cx="230.2" cy="140.2" rx="16" ry="27.6"/>
<path class="st2" d="M526.8,226.5H298.6c-7.6,0-13.8-5.4-13.8-12.1v-7.1V46.6c0-6.7,6.2-12,13.8-12h228.3c7.6,0,13.8,5.4,13.8,12
	v167.8C540.6,221.1,534.4,226.5,526.8,226.5z"/>
<path class="st3" d="M500.5,201.5H324.8c-11.6,0-20.9-8.2-20.9-18.5V68.7c0-10.3,9.4-18.5,20.9-18.5h175.9
	c11.6,0,20.9,8.2,20.9,18.5V183C521.6,193.3,512.2,201.5,500.5,201.5z"/>
<rect x="380.8" y="226.5" class="st4" width="65.7" height="19.1"/>
<path class="st2" d="M465.8,253.4H359.6c-2.8,0-4.9-1.7-4.9-3.9l0,0c0-2.2,2-3.9,4.9-3.9h106.2c2.8,0,4.9,1.7,4.9,3.9l0,0
	C470.6,251.8,468.6,253.4,465.8,253.4z"/>
<path class="st5" d="M304.2,219.6l220.1,1.1c0.6-0.2,1.1-0.2,1.7-0.4c0.6-0.2,1.2-0.2,1.8-0.4c1.1-0.6,3-1.5,4.4-3.4
	c1.8-2.4,2.3-4.7,2.6-5.8c0-0.7,0.2-1.7,0.2-2.4V46.1c0-1.1,0-2.6-0.6-4.3c-0.9-2.6-2.3-4.5-3.2-5.4c-0.6-0.4-1.2-0.9-1.8-1.3
	c0.6,0,1.2,0.2,2.1,0.4c0.4,0.2,0.9,0.4,1.2,0.6c0.9,0.4,1.7,0.7,2.3,1.3c0.9,0.6,1.7,1.3,2.6,2.2c3.2,3.5,3,7.7,2.7,9.3
	c0,50.3,0,100.5,0,150.9c0,5.2,0,10.5,0,15.7c0,0.9-0.2,2.1-0.9,3.5c-0.6,1.7-1.7,2.8-2.6,3.5c-0.6,0.7-2.1,1.9-4.1,2.8
	c-1.8,0.9-3.6,1.1-4.7,1.3c-76.6,0-153.2,0-229.9,0c-1.5,0-4.4-0.2-7.6-2.1c-1.7-0.9-2.7-2.1-3.3-2.8c-1.1-1.3-1.7-2.4-1.7-2.6
	c-0.9-1.7-1.1-3.4-0.9-4.5c2.7,1.7,7.4,4.3,13.8,4.9C300.9,219.6,302.5,219.6,304.2,219.6z"/>
<path class="st5" d="M398.4,239.1"/>
<path class="st6" d="M446.5,234.4c-3.2-0.6-7.1-1.1-11.8-1.7c0,0-2.3-0.4-4.7-0.6c-5.9-0.6-24.4-1.3-48.9-0.9c0-1.5,0-3,0-4.7h65.7
	C446.5,229.2,446.5,231.8,446.5,234.4z"/>
<path class="st6" d="M453,236.4"/>
<path class="st3" d="M559.9,116.7"/>
<path class="st7" d="M314.4,82c-0.9-0.6-1.5-1.3-1.7-2.2c-0.4-2.8,0-3.9,0.4-8.2c0.2-3-0.2-4.7,0.9-7.5c0.2-0.6,0.4-1.1,0.6-1.5
	c2.3-4.5,17.7-3.4,19.5-3.4c4.4,0,8.6,0.2,13.3,0.2l2.7,0.7c2.1,0.6,3.2,2.8,2.1,4.7l0,0c-1.8,3-7,4.5-12.4,3.7c-0.6,0-1.1,0-1.7,0
	c-1.8,0.4-4.4,1.3-7.1,3c-4.2,2.8-6.2,6.2-7,7.7c-1.1,2.1-3.3,3.5-5.7,3.5C316.5,82.9,315.2,82.3,314.4,82z"/>
<path class="st7" d="M312.8,89.4c0.2,18.3,0.4,36.4,0.6,54.5c0,0.2,0.2,2.1,2.1,3c2.1,0.9,5.5,0.6,7.6-1.3c0.2-1.5,0.6-3,1.1-4.5
	c-0.6-7.8-1.5-15.5-2.1-23.4c-0.9-9.5-1.7-18.9-2.6-28.4c-0.4-0.9-1.8-1.7-3.2-1.7C314.8,87.7,313.6,88.5,312.8,89.4z"/>
<path class="st8" d="M399.7,61.1c6.2-2.3,14.8,0.2,16.5,6.3c1.7,5.6-3.2,11.7-8.6,13.5c-6.2,2.1-14.4-0.8-15.9-6.9
	C390.1,68.6,394.7,63,399.7,61.1z"/>
<path class="st8" d="M418.7,80.8l29.7,15.7l0.2,0.2v26.9c0,0.2-0.2,0.4-0.4,0.4h-10.8c-0.2,0-0.4-0.2-0.4-0.4v-21.1
	c0-0.2,0-0.2-0.2-0.2l-10.1-5.4c-0.2-0.2-0.4,0-0.4,0.2v28.8v0.2l-30.1,27.8c0,0,0,0,0,0.2l-8,29.1c0,0.2-0.2,0.2-0.4,0.2l-14.4-3
	c-0.2,0-0.2-0.2-0.2-0.4l10-37v-0.2l19.7-17.2v-0.2V88.3c0-0.2,0-0.2,0.2-0.2l15.4-7.5C418.5,80.8,418.5,80.8,418.7,80.8z"/>
<path class="st8" d="M396.2,101.6L374.3,121c-0.2,0.2-0.2,0.6,0,0.7l7,6.7c0.2,0.2,0.6,0.2,0.9,0l15.3-12.1c0.2-0.2,0.2-0.2,0.2-0.4
	v-14C397.3,101.4,396.7,101.2,396.2,101.6z"/>
<path class="st8" d="M418.7,140.8l8.6-7.3c0.6-0.4,1.5-0.4,1.8,0.2l29.4,45.4c0.4,0.6,0.2,1.1-0.4,1.5l-9.5,5
	c-0.6,0.4-1.2,0.2-1.7-0.4l-28.6-43C418.1,141.7,418.2,141.1,418.7,140.8z"/>
<ellipse class="st0" cx="453" cy="182.2" rx="7.5" ry="6.3"/>
<ellipse class="st0" cx="377" cy="125.3" rx="6.5" ry="6"/>
<path class="st0" d="M449.5,125.3c0,3.4-3.2,6-7,6c-3.2,0-5.1-2.1-5.3-2.1c-0.2-0.4-1.7-1.9-1.7-3.7c0-2.8,2.7-6,7-6
	C446.6,119.5,449.5,122.1,449.5,125.3z"/>
<ellipse class="st0" cx="380.7" cy="182.2" rx="8.2" ry="7"/>
</svg>
