<?xml version="1.0" encoding="utf-8"?>
<!-- Generator: Adobe Illustrator 24.2.1, SVG Export Plug-In . SVG Version: 6.00 Build 0)  -->
<svg version="1.1" id="Слой_1" xmlns="http://www.w3.org/2000/svg" xmlns:xlink="http://www.w3.org/1999/xlink" x="0px" y="0px"
	 viewBox="0 0 357 349" style="enable-background:new 0 0 357 349;" xml:space="preserve">
<style type="text/css">
	.st0{fill:#7DBCBB;}
	.st1{fill:#EFEFEF;stroke:#79B2AF;stroke-miterlimit:10;}
	.st2{fill:#7BA8AA;}
	.st3{fill:#76A6AD;}
	.st4{fill:#6C9093;}
	.st5{fill:#FFFFFF;}
	.st6{stroke:#000000;stroke-miterlimit:10;}
</style>
<g id="Слой_3">
	<g>
		<path class="st0" d="M312,288.8H47.2c-8.8,0-15.9-7.4-15.9-16.7v-9.7V41.8c0-9.2,7.1-16.4,15.9-16.4H312c8.8,0,15.9,7.4,15.9,16.4
			v230.3C327.9,281.6,320.8,288.8,312,288.8z"/>
		<path class="st1" d="M281.5,254.4H77.6c-13.3,0-24.3-11.3-24.3-25.4v-157c0-14.1,10.8-25.4,24.3-25.4h203.9
			c13.3,0,24.3,11.3,24.3,25.4v157C305.8,243.2,295,254.4,281.5,254.4z"/>
		<rect x="142.7" y="288.8" class="st2" width="76.1" height="26.2"/>
		<path class="st0" d="M237.4,326H125.5c-2.9,0-5.2-2.3-5.2-5.4l0,0c0-3.1,2.2-5.4,5.2-5.4h111.9c2.9,0,5.2,2.3,5.2,5.4l0,0
			C242.5,323.4,240.3,326,237.4,326z"/>
		<path class="st3" d="M53.8,279.3l254.9,1.5c0.7-0.3,1.5-0.3,2-0.5c0.7-0.3,1.5-0.3,2.2-0.5c1.2-0.8,3.4-2.1,5.2-4.6
			c2.2-3.3,2.7-6.4,2.9-8c0.2-1,0.2-2.3,0.2-3.3V41.1c0-1.5,0-3.6-0.7-5.9c-1-3.6-2.7-6.2-3.7-7.4c-0.7-0.5-1.5-1.3-2.2-1.8
			c0.7,0,1.5,0.3,2.5,0.5c0.5,0.3,1,0.5,1.5,0.8c1,0.5,2,1,2.7,1.8c1,0.8,2,1.8,2.9,3.1c3.7,4.9,3.4,10.5,3.2,12.8
			c0,69,0,138.2,0,207.2c0,7.2,0,14.4,0,21.5c0,1.3-0.2,2.8-1,4.9c-0.7,2.3-2,3.8-2.9,4.9c-0.7,1-2.2,2.6-4.7,3.8
			c-2.2,1.3-4.2,1.5-5.4,1.8c-88.8,0-177.7,0-266.5,0c-1.7,0-5.4-0.3-8.8-2.8c-2-1.3-3.2-2.8-3.9-3.8c-1.2-1.8-2-3.3-2-3.6
			c-1-2.3-1.2-4.6-1-6.2c3.2,2.3,8.6,5.9,15.9,6.7C49.7,279.6,51.9,279.6,53.8,279.3z"/>
		<path class="st3" d="M163,306"/>
		<path class="st4" d="M218.7,299.8c-3.7-0.8-8.3-1.5-13.7-2.3c0,0-2.7-0.5-5.4-0.8c-6.9-0.8-28.2-1.8-56.7-1.3c0-2.1,0-4.1,0-6.4
			H219C218.7,292.7,218.7,296.2,218.7,299.8z"/>
		<path class="st4" d="M226.3,302.4"/>
		<path class="st1" d="M350,138"/>
		<path class="st5" d="M65.6,90.3c-1-0.8-1.7-1.8-2-3.1c-0.5-3.8,0-5.4,0.5-11.3c0.2-4.1-0.2-6.4,1-10.3c0.2-0.8,0.5-1.5,0.7-2.1
			c2.7-6.2,20.6-4.6,22.6-4.6c5.2,0,10.1,0.3,15.5,0.3l3.2,1c2.5,0.8,3.7,3.8,2.5,6.4l0,0c-2.2,4.1-8.1,6.2-14.5,5.1
			c-0.7,0-1.2,0-2,0c-2.2,0.5-5.2,1.8-8.3,4.1c-4.9,3.8-7.1,8.5-8.1,10.5c-1.2,2.8-3.9,4.9-6.6,4.9C68.1,91.6,66.6,91.1,65.6,90.3z"
			/>
		<path class="st5" d="M63.9,100.8c0.2,25.1,0.5,50,0.7,74.9c0,0.3,0.2,2.8,2.5,4.1c2.5,1.3,6.4,0.8,8.8-1.8
			c0.2-2.1,0.7-4.1,1.2-6.2c-0.7-10.8-1.7-21.3-2.5-32.1c-1-13.1-2-25.9-2.9-39c-0.5-1.3-2.2-2.3-3.9-2.3
			C66.1,98.5,64.6,99.3,63.9,100.8z"/>
		<path class="st6" d="M165.5,66.4c7.1-2.8,17.2,0.3,19.1,7.7c2,6.9-3.7,14.4-10.1,16.7c-7.1,2.6-16.7-1-18.4-8.5
			C154.4,75.7,159.6,68.8,165.5,66.4z"/>
		<path class="st6" d="M186.6,88.8l34.4,21.5l0.2,0.3v37.2c0,0.3-0.2,0.5-0.5,0.5h-12.5c-0.2,0-0.5-0.3-0.5-0.5v-29
			c0-0.3,0-0.3-0.2-0.3l-11.8-7.4c-0.2-0.3-0.5,0-0.5,0.3v39.5v0.3l-34.8,38.2c0,0,0,0,0,0.3l-9.3,40c0,0.3-0.2,0.3-0.5,0.3
			l-16.7-4.1c-0.2,0-0.2-0.3-0.2-0.5l11.5-50.8v-0.3l22.8-23.6v-0.3v-51c0-0.3,0-0.3,0.2-0.3l17.9-10.3
			C186.3,88.8,186.3,88.8,186.6,88.8z"/>
		<path class="st6" d="M160.6,117.2L135,143.9c-0.2,0.3-0.2,0.8,0,1l8.1,9.2c0.2,0.3,0.7,0.3,1,0l17.7-16.7c0.2-0.3,0.2-0.3,0.2-0.5
			v-19.2C161.8,117.2,161.1,116.7,160.6,117.2z"/>
		<path class="st6" d="M185.4,169.8l10.1-10c0.7-0.5,1.7-0.5,2.2,0.3l34.1,62.3c0.5,0.8,0.2,1.5-0.5,2.1l-11,6.9
			c-0.7,0.5-1.5,0.3-2-0.5l-33.1-59C184.9,170.8,185.1,170.1,185.4,169.8z"/>
		<ellipse cx="141.9" cy="229.3" rx="10.6" ry="10.8"/>
		<ellipse cx="225.6" cy="228" rx="9.1" ry="9.5"/>
		<ellipse cx="138.2" cy="150.1" rx="7.6" ry="8.2"/>
		<path d="M222.4,150.1c0,4.6-3.7,8.2-8.1,8.2c-3.7,0-5.9-2.8-6.1-2.8c-0.2-0.5-2-2.6-2-5.1c0-3.8,3.2-8.2,8.1-8.2
			C219,141.9,222.4,145.4,222.4,150.1z"/>
	</g>
</g>
<g id="Слой_2_1_">
</g>
</svg>
