<?xml version="1.0" encoding="utf-8"?>
<!-- Generator: Adobe Illustrator 24.2.1, SVG Export Plug-In . SVG Version: 6.00 Build 0)  -->
<svg version="1.1" xmlns="http://www.w3.org/2000/svg" xmlns:xlink="http://www.w3.org/1999/xlink" x="0px" y="0px"
	 viewBox="0 0 595.3 841.9" style="enable-background:new 0 0 595.3 841.9;" xml:space="preserve">
<style type="text/css">
	.st0{fill:#7DBCBB;}
	.st1{fill:#EFEFEF;stroke:#79B2AF;stroke-miterlimit:10;}
	.st2{fill:#7BA8AA;}
	.st3{fill:#76A6AD;}
	.st4{fill:#6C9093;}
	.st5{fill:#FFFFFF;}
	.st6{stroke:#000000;stroke-miterlimit:10;}
	.st7{fill:#1D1D1B;}
</style>
<g id="Слой_3">
	<g>
		<path class="st0" d="M358.3,300.9H250.4c-3.6,0-6.5-2.9-6.5-6.5v-3.8v-86c0-3.6,2.9-6.4,6.5-6.4h107.9c3.6,0,6.5,2.9,6.5,6.4v89.8
			C364.8,298,361.9,300.9,358.3,300.9z"/>
		<path class="st1" d="M345.9,287.5h-83.1c-5.5,0-9.9-4.4-9.9-9.9v-61.2c0-5.5,4.4-9.9,9.9-9.9h83.1c5.5,0,9.9,4.4,9.9,9.9v61.2
			C355.8,283.1,351.4,287.5,345.9,287.5z"/>
		<rect x="289.3" y="300.9" class="st2" width="31" height="10.2"/>
		<path class="st0" d="M327.9,315.3h-45.6c-1.2,0-2.1-0.9-2.1-2.1l0,0c0-1.2,0.9-2.1,2.1-2.1h45.6c1.2,0,2.1,0.9,2.1,2.1l0,0
			C330,314.4,329.1,315.3,327.9,315.3z"/>
		<path class="st3" d="M253.1,297.2l104,0.6c0.3-0.1,0.5-0.1,0.8-0.2c0.3-0.1,0.6-0.1,0.9-0.2c0.5-0.3,1.4-0.8,2.1-1.8
			c0.9-1.3,1.1-2.5,1.2-3.1c0-0.4,0.1-0.9,0.1-1.3v-86.9c0-0.6,0-1.4-0.3-2.3c-0.4-1.4-1.1-2.4-1.5-2.9c-0.3-0.2-0.6-0.5-0.9-0.7
			c0.3,0,0.6,0.1,1,0.2c0.2,0.1,0.4,0.2,0.6,0.3c0.4,0.2,0.8,0.4,1.1,0.7c0.4,0.3,0.8,0.7,1.2,1.2c1.5,1.9,1.4,4.1,1.3,5
			c0,26.9,0,53.8,0,80.8c0,2.8,0,5.6,0,8.4c0,0.5-0.1,1.1-0.4,1.9c-0.3,0.9-0.8,1.5-1.2,1.9c-0.3,0.4-1,1-1.9,1.5
			c-0.9,0.5-1.7,0.6-2.2,0.7c-36.2,0-72.4,0-108.6,0c-0.7,0-2.1-0.1-3.6-1.1c-0.8-0.5-1.3-1.1-1.6-1.5c-0.5-0.7-0.8-1.3-0.8-1.4
			c-0.4-0.9-0.5-1.8-0.4-2.4c1.3,0.9,3.5,2.3,6.5,2.6C251.5,297.2,252.3,297.2,253.1,297.2z"/>
		<path class="st3" d="M297.6,307.6"/>
		<path class="st4" d="M320.3,305.1c-1.5-0.3-3.4-0.6-5.6-0.9c0,0-1.1-0.2-2.2-0.3c-2.8-0.3-11.5-0.7-23.1-0.5c0-0.8,0-1.6,0-2.5h31
			C320.3,302.3,320.3,303.7,320.3,305.1z"/>
		<path class="st4" d="M323.4,306.2"/>
		<path class="st1" d="M373.9,242.1"/>
		<path class="st5" d="M257.9,223.5c-0.4-0.3-0.7-0.7-0.8-1.2c-0.2-1.5,0-2.1,0.2-4.4c0.1-1.6-0.1-2.5,0.4-4
			c0.1-0.3,0.2-0.6,0.3-0.8c1.1-2.4,8.4-1.8,9.2-1.8c2.1,0,4.1,0.1,6.3,0.1l1.3,0.4c1,0.3,1.5,1.5,1,2.5c0,0,0,0,0,0
			c-0.9,1.6-3.3,2.4-5.9,2c-0.3,0-0.5,0-0.8,0c-0.9,0.2-2.1,0.7-3.4,1.6c-2,1.5-2.9,3.3-3.3,4.1c-0.5,1.1-1.6,1.9-2.7,1.9
			C258.9,224,258.3,223.7,257.9,223.5z"/>
		<path class="st5" d="M257.2,227.5c0.1,9.8,0.2,19.5,0.3,29.2c0,0.1,0.1,1.1,1,1.6c1,0.5,2.6,0.3,3.6-0.7c0.1-0.8,0.3-1.6,0.5-2.4
			c-0.3-4.2-0.7-8.3-1-12.5c-0.4-5.1-0.8-10.1-1.2-15.2c-0.2-0.5-0.9-0.9-1.5-0.9C258.1,226.6,257.5,227,257.2,227.5z"/>
		<path class="st6" d="M298.6,214.1c2.9-1.1,7,0.1,7.8,3c0.8,2.7-1.5,5.6-4.1,6.5c-2.9,1-6.8-0.4-7.5-3.3
			C294.1,217.7,296.2,215,298.6,214.1z"/>
		<path class="st6" d="M307.2,222.9l14,8.4c0,0,0.1,0.1,0.1,0.1v14.4c0,0.1-0.1,0.2-0.2,0.2H316c-0.1,0-0.2-0.1-0.2-0.2v-11.3
			c0-0.1,0-0.1-0.1-0.1l-4.8-2.9c-0.1-0.1-0.2,0-0.2,0.1v15.4c0,0,0,0.1,0,0.1l-14.2,14.9c0,0,0,0,0,0.1l-3.8,15.6
			c0,0.1-0.1,0.1-0.2,0.1l-6.8-1.6c-0.1,0-0.1-0.1-0.1-0.2l4.7-19.8c0,0,0-0.1,0-0.1l9.3-9.2c0,0,0-0.1,0-0.1v-19.9
			c0-0.1,0-0.1,0.1-0.1l7.3-4C307.1,222.9,307.1,222.9,307.2,222.9z"/>
		<path class="st6" d="M296.6,234l-10.4,10.4c-0.1,0.1-0.1,0.3,0,0.4l3.3,3.6c0.1,0.1,0.3,0.1,0.4,0l7.2-6.5
			c0.1-0.1,0.1-0.1,0.1-0.2v-7.5C297.1,233.9,296.8,233.8,296.6,234z"/>
		<path class="st6" d="M306.8,254.4l4.1-3.9c0.3-0.2,0.7-0.2,0.9,0.1l13.9,24.3c0.2,0.3,0.1,0.6-0.2,0.8l-4.5,2.7
			c-0.3,0.2-0.6,0.1-0.8-0.2l-13.5-23C306.5,254.9,306.6,254.6,306.8,254.4z"/>
		<ellipse cx="289" cy="277.6" rx="4.3" ry="4.2"/>
		<ellipse cx="323.1" cy="277.1" rx="3.7" ry="3.7"/>
		<ellipse cx="287.5" cy="246.7" rx="3.1" ry="3.2"/>
		<path d="M321.8,246.7c0,1.8-1.5,3.2-3.3,3.2c-1.5,0-2.4-1.1-2.5-1.1c-0.1-0.2-0.8-1-0.8-2c0-1.5,1.3-3.2,3.3-3.2
			C320.4,243.6,321.8,245,321.8,246.7z"/>
	</g>
	<path class="st7" d="M97.4,280.6h-3.6c-2.8,0-5.1-2.3-5.1-5.1v-45c0-2.8,2.3-5.1,5.1-5.1h3.6c2.8,0,5.1,2.3,5.1,5.1v45
		C102.5,278.3,100.2,280.6,97.4,280.6z"/>
	<ellipse class="st7" cx="95.6" cy="215.9" rx="6.1" ry="5.8"/>
	<path class="st7" d="M112.3,261.3c0.2,4.1,0.6,11.8,6.1,15.6c2.8,2,5.9,2.2,6.9,2.2c7.4,0.5,12.4-5,13.3-6.1c0.6-0.6,4.4-5,4.3-11
		c0-1.9-0.1-4.3-2-5.9c-1.6-1.4-4.4-2.1-6.1-1c-2.1,1.4-0.4,4.5-2.6,8.3c-1.1,1.9-2.7,3.1-3.8,3.8l0,0c-0.2,0-2.1,0.2-3.6-1.2
		c-1.6-1.5-1.3-3.4-1.3-3.6v-53.9c0-2.8-1.9-5.1-4.3-5.1c-2.3,0.1-4.5,0.2-6.8,0.3C111.6,229.6,111.7,250,112.3,261.3z"/>
	<path class="st7" d="M127.6,227.1h-18.5c-2.7,0-5-2.1-5-4.7c0-2.6,2.2-4.7,5-4.7h18.5c2.7,0,5,2.1,5,4.7
		C132.6,225,130.3,227.1,127.6,227.1z"/>
	<ellipse class="st7" cx="163.1" cy="251.6" rx="18.2" ry="22.3"/>
	<path class="st7" d="M180.9,287.3c-0.2,4.1-0.6,11.8-5.9,15.6c-2.7,2-5.7,2.2-6.7,2.2c-7.2,0.5-11.9-5-12.8-6.1
		c-0.5-0.6-4.2-5-4.2-11c0-1.9,0.1-4.3,1.9-5.9c1.5-1.4,4.3-2.1,5.8-1c2,1.4,0.4,4.5,2.5,8.3c1.1,1.9,2.6,3.1,3.7,3.8
		c0.2,0,2.1,0.2,3.5-1.2c1.5-1.5,1.2-3.4,1.2-3.6c-0.2-8.4,0.1-15.2,0.4-20c0.7-9.2,1.8-15.7,0.8-25.7c-0.3-3.5-0.9-6.3-1.2-8.2
		c0.1-0.3,0.4-5.3,4.1-5.1c2.2,0.1,4.4,0.2,6.6,0.3C181.6,255.7,181.4,276,180.9,287.3z"/>
	<ellipse class="st5" cx="162.9" cy="251.6" rx="8.7" ry="13.5"/>
	<ellipse class="st7" cx="203.8" cy="254.7" rx="19.5" ry="24.3"/>
	<ellipse class="st5" cx="203.7" cy="254.7" rx="9.3" ry="14.8"/>
</g>
<g id="Слой_2">
</g>
</svg>
