<?xml version="1.0" encoding="utf-8"?>
<!-- Generator: Adobe Illustrator 24.2.1, SVG Export Plug-In . SVG Version: 6.00 Build 0)  -->
<svg version="1.1" id="Слой_1" xmlns="http://www.w3.org/2000/svg" xmlns:xlink="http://www.w3.org/1999/xlink" x="0px" y="0px"
	 viewBox="0 0 213 213.5" style="enable-background:new 0 0 213 213.5;" xml:space="preserve">
<style type="text/css">
	.st0{fill:#2F2F2F;stroke:#303030;stroke-miterlimit:10;}
</style>
<g>
	<path class="st0" d="M38.8,175.3l-0.6-0.7c-1.2-1.2-0.6-3.7,1.3-5.6L168.7,39.5c1.9-1.9,4.4-2.5,5.6-1.3l0.6,0.7
		c1.2,1.2,0.6,3.7-1.3,5.6L44.4,174C42.5,175.9,40,176.5,38.8,175.3z"/>
	<path class="st0" d="M174.9,174.6l-0.7,0.7c-1.2,1.2-3.7,0.7-5.6-1.3L39.4,44.6c-1.9-1.9-2.5-4.5-1.3-5.7l0.7-0.7
		c1.2-1.2,3.7-0.7,5.6,1.3l129.1,129.5C175.5,170.9,176.1,173.4,174.9,174.6z"/>
</g>
</svg>
