<?xml version="1.0" encoding="utf-8"?>
<!-- Generator: Adobe Illustrator 24.2.1, SVG Export Plug-In . SVG Version: 6.00 Build 0)  -->
<svg version="1.1" xmlns="http://www.w3.org/2000/svg" xmlns:xlink="http://www.w3.org/1999/xlink" x="0px" y="0px"
	 viewBox="0 0 213.5 213.5" style="enable-background:new 0 0 213.5 213.5;" xml:space="preserve">
<style type="text/css">
	.st0{fill:none;stroke:#303030;stroke-width:7;stroke-miterlimit:10;}
</style>
<g id="Artwork">
</g>
<g id="Text">
</g>
<g id="Crop_marks">
	<g>
		<ellipse class="st0" cx="106.7" cy="106.7" rx="77.4" ry="77.4"/>
		<path class="st0" d="M46.6,155.4c2.4-4.6,6.2-10.6,12-16.7c5.4-5.7,10.8-9.5,15.1-12.1c2.7-1.6,7-4.2,13.1-6.3
			c4.4-1.5,11-3.2,19.5-3.2c-2.5-0.1-8.2-0.6-14.1-4.3c-1.4-0.9-6.3-4.3-9.8-10.8c-1.2-2.3-3.8-7.9-3.2-15.2
			c0.5-5.9,2.7-10.2,4-12.4c1.4-2.2,4.8-7,11.1-10.4c5.4-2.8,10.4-3.2,13-3.2c2.6,0,7.6,0.4,13,3.2c6.7,3.5,10.2,8.8,11.5,11.1
			c1.2,2.2,3.6,7.1,3.6,13.8c0,6.7-2.4,11.6-3.6,13.8c-0.5,0.9-3.1,5.2-8.3,9c-5.5,3.9-11,5-14.1,5.4c3.7,0.2,8.6,0.7,14.1,2.2
			c2.8,0.8,8.6,2.4,15.2,6.1c4.7,2.6,11,6.9,17.3,13.4c5.5,5.8,9.2,11.5,11.6,15.9c-2.5,3.2-5.6,6.6-9.4,10
			c-8.2,7.3-16.5,11.5-22.7,14c-5.4,2.2-13.5,4.9-23.8,5.5c-9.3,0.6-17-0.7-22.3-2c-6.2-1.5-15.5-4.5-25.3-11
			C56,165.8,50.3,159.9,46.6,155.4z"/>
		<line class="st0" x1="105.1" y1="117" x2="110.5" y2="117"/>
	</g>
</g>
<g id="Dieline">
</g>
</svg>
