<?xml version="1.0" encoding="utf-8"?>
<!-- Generator: Adobe Illustrator 24.2.1, SVG Export Plug-In . SVG Version: 6.00 Build 0)  -->
<svg version="1.1" xmlns="http://www.w3.org/2000/svg" xmlns:xlink="http://www.w3.org/1999/xlink" x="0px" y="0px"
	 viewBox="0 0 595.3 841.9" style="enable-background:new 0 0 595.3 841.9;" xml:space="preserve">
<style type="text/css">
	.st0{fill:#7DBCBB;}
	.st1{fill:#EFEFEF;stroke:#79B2AF;stroke-miterlimit:10;}
	.st2{fill:#7BA8AA;}
	.st3{fill:#76A6AD;}
	.st4{fill:#6C9093;}
	.st5{fill:#FFFFFF;}
	.st6{stroke:#000000;stroke-miterlimit:10;}
</style>
<g id="Слой_3">
	<g>
		<path class="st0" d="M243.6,299H135.7c-3.6,0-6.5-2.9-6.5-6.5v-3.8v-86c0-3.6,2.9-6.4,6.5-6.4h107.9c3.6,0,6.5,2.9,6.5,6.4v89.8
			C250.1,296.2,247.2,299,243.6,299z"/>
		<path class="st1" d="M231.2,285.6h-83.1c-5.4,0-9.9-4.4-9.9-9.9v-61.2c0-5.5,4.4-9.9,9.9-9.9h83.1c5.4,0,9.9,4.4,9.9,9.9v61.2
			C241.1,281.2,236.7,285.6,231.2,285.6z"/>
		<rect x="174.6" y="299" class="st2" width="31" height="10.2"/>
		<path class="st0" d="M213.2,313.5h-45.6c-1.2,0-2.1-0.9-2.1-2.1l0,0c0-1.2,0.9-2.1,2.1-2.1h45.6c1.2,0,2.1,0.9,2.1,2.1l0,0
			C215.3,312.5,214.4,313.5,213.2,313.5z"/>
		<path class="st3" d="M138.4,295.3l103.9,0.6c0.3-0.1,0.6-0.1,0.8-0.2c0.3-0.1,0.6-0.1,0.9-0.2c0.5-0.3,1.4-0.8,2.1-1.8
			c0.9-1.3,1.1-2.5,1.2-3.1c0.1-0.4,0.1-0.9,0.1-1.3v-86.9c0-0.6,0-1.4-0.3-2.3c-0.4-1.4-1.1-2.4-1.5-2.9c-0.3-0.2-0.6-0.5-0.9-0.7
			c0.3,0,0.6,0.1,1,0.2c0.2,0.1,0.4,0.2,0.6,0.3c0.4,0.2,0.8,0.4,1.1,0.7c0.4,0.3,0.8,0.7,1.2,1.2c1.5,1.9,1.4,4.1,1.3,5
			c0,26.9,0,53.9,0,80.8c0,2.8,0,5.6,0,8.4c0,0.5-0.1,1.1-0.4,1.9c-0.3,0.9-0.8,1.5-1.2,1.9c-0.3,0.4-0.9,1-1.9,1.5
			c-0.9,0.5-1.7,0.6-2.2,0.7c-36.2,0-72.4,0-108.6,0c-0.7,0-2.2-0.1-3.6-1.1c-0.8-0.5-1.3-1.1-1.6-1.5c-0.5-0.7-0.8-1.3-0.8-1.4
			c-0.4-0.9-0.5-1.8-0.4-2.4c1.3,0.9,3.5,2.3,6.5,2.6C136.7,295.4,137.6,295.4,138.4,295.3z"/>
		<path class="st3" d="M182.9,305.7"/>
		<path class="st4" d="M205.6,303.3c-1.5-0.3-3.4-0.6-5.6-0.9c0,0-1.1-0.2-2.2-0.3c-2.8-0.3-11.5-0.7-23.1-0.5c0-0.8,0-1.6,0-2.5h31
			C205.6,300.5,205.6,301.9,205.6,303.3z"/>
		<path class="st4" d="M208.7,304.3"/>
		<path class="st1" d="M259.1,240.2"/>
		<path class="st5" d="M143.2,221.6c-0.4-0.3-0.7-0.7-0.8-1.2c-0.2-1.5,0-2.1,0.2-4.4c0.1-1.6-0.1-2.5,0.4-4
			c0.1-0.3,0.2-0.6,0.3-0.8c1.1-2.4,8.4-1.8,9.2-1.8c2.1,0,4.1,0.1,6.3,0.1l1.3,0.4c1,0.3,1.5,1.5,1,2.5c0,0,0,0,0,0
			c-0.9,1.6-3.3,2.4-5.9,2c-0.3,0-0.5,0-0.8,0c-0.9,0.2-2.1,0.7-3.4,1.6c-2,1.5-2.9,3.3-3.3,4.1c-0.5,1.1-1.6,1.9-2.7,1.9
			C144.2,222.1,143.6,221.9,143.2,221.6z"/>
		<path class="st5" d="M142.5,225.7c0.1,9.8,0.2,19.5,0.3,29.2c0,0.1,0.1,1.1,1,1.6c1,0.5,2.6,0.3,3.6-0.7c0.1-0.8,0.3-1.6,0.5-2.4
			c-0.3-4.2-0.7-8.3-1-12.5c-0.4-5.1-0.8-10.1-1.2-15.2c-0.2-0.5-0.9-0.9-1.6-0.9C143.4,224.8,142.8,225.1,142.5,225.7z"/>
		<path class="st6" d="M183.9,212.3c2.9-1.1,7,0.1,7.8,3c0.8,2.7-1.5,5.6-4.1,6.5c-2.9,1-6.8-0.4-7.5-3.3
			C179.4,215.9,181.5,213.2,183.9,212.3z"/>
		<path class="st6" d="M192.5,221l14,8.4c0,0,0.1,0.1,0.1,0.1V244c0,0.1-0.1,0.2-0.2,0.2h-5.1c-0.1,0-0.2-0.1-0.2-0.2v-11.3
			c0-0.1,0-0.1-0.1-0.1l-4.8-2.9c-0.1-0.1-0.2,0-0.2,0.1v15.4c0,0,0,0.1,0,0.1l-14.2,14.9c0,0,0,0,0,0.1l-3.8,15.6
			c0,0.1-0.1,0.1-0.2,0.1l-6.8-1.6c-0.1,0-0.1-0.1-0.1-0.2l4.7-19.8c0,0,0-0.1,0-0.1l9.3-9.2c0,0,0-0.1,0-0.1v-19.9
			c0-0.1,0-0.1,0.1-0.1l7.3-4C192.4,221,192.4,221,192.5,221z"/>
		<path class="st6" d="M181.9,232.1l-10.4,10.4c-0.1,0.1-0.1,0.3,0,0.4l3.3,3.6c0.1,0.1,0.3,0.1,0.4,0l7.2-6.5
			c0.1-0.1,0.1-0.1,0.1-0.2v-7.5C182.4,232.1,182.1,231.9,181.9,232.1z"/>
		<path class="st6" d="M192,252.6l4.1-3.9c0.3-0.2,0.7-0.2,0.9,0.1l13.9,24.3c0.2,0.3,0.1,0.6-0.2,0.8l-4.5,2.7
			c-0.3,0.2-0.6,0.1-0.8-0.2l-13.5-23C191.8,253,191.9,252.7,192,252.6z"/>
		<ellipse cx="174.3" cy="275.8" rx="4.3" ry="4.2"/>
		<ellipse cx="208.4" cy="275.3" rx="3.7" ry="3.7"/>
		<ellipse cx="172.8" cy="244.9" rx="3.1" ry="3.2"/>
		<path d="M207.1,244.9c0,1.8-1.5,3.2-3.3,3.2c-1.5,0-2.4-1.1-2.5-1.1c-0.1-0.2-0.8-1-0.8-2c0-1.5,1.3-3.2,3.3-3.2
			C205.7,241.7,207.1,243.1,207.1,244.9z"/>
	</g>
</g>
<g id="Слой_2">
</g>
</svg>
