<?xml version="1.0" encoding="utf-8"?>
<!-- Generator: Adobe Illustrator 24.2.1, SVG Export Plug-In . SVG Version: 6.00 Build 0)  -->
<svg version="1.1" xmlns="http://www.w3.org/2000/svg" xmlns:xlink="http://www.w3.org/1999/xlink" x="0px" y="0px"
	 viewBox="0 0 213.5 213.5" style="enable-background:new 0 0 213.5 213.5;" xml:space="preserve">
<style type="text/css">
	.st0{fill:none;stroke:#303030;stroke-width:7;stroke-miterlimit:10;}
</style>
<g id="Artwork">
</g>
<g id="Text">
</g>
<g id="Crop_marks">
	<path class="st0" d="M47.6,184.5h40.2c0.8,0,1.4-0.6,1.4-1.4v-57.2c0-0.8,0.6-1.4,1.4-1.4h31.2c0.8,0,1.4,0.6,1.4,1.4v57.2
		c0,0.8,0.6,1.4,1.4,1.4h40.2c0.8,0,1.4-0.6,1.4-1.4v-81.2c0-0.8,0.6-1.4,1.4-1.4h9.2c1.3,0,1.9-1.5,1-2.4l-69.6-68.6
		c-0.5-0.5-1.4-0.5-2,0L35.7,98.1c-0.9,0.9-0.3,2.4,1,2.4h8.1c0.8,0,1.4,0.6,1.4,1.4v81.2C46.2,183.9,46.9,184.5,47.6,184.5z"/>
</g>
<g id="Dieline">
</g>
</svg>
