<?xml version="1.0" encoding="utf-8"?>
<!-- Generator: Adobe Illustrator 24.2.1, SVG Export Plug-In . SVG Version: 6.00 Build 0)  -->
<svg version="1.1" xmlns="http://www.w3.org/2000/svg" xmlns:xlink="http://www.w3.org/1999/xlink" x="0px" y="0px"
	 viewBox="0 0 213.5 213.5" style="enable-background:new 0 0 213.5 213.5;" xml:space="preserve">
<style type="text/css">
	.st0{fill:none;stroke:#303030;stroke-width:7;stroke-miterlimit:10;}
	.st1{fill:#303030;stroke:#303030;stroke-width:2;stroke-miterlimit:10;}
	.st2{fill:#303030;stroke:#303030;stroke-miterlimit:10;}
	.st3{fill:#303030;}
</style>
<g id="Artwork">
</g>
<g id="Text">
</g>
<g id="Crop_marks">
	<path class="st0" d="M164,184.4H49.5c-7.6,0-13.8-6.2-13.8-13.8v-107c0-7.6,6.2-13.8,13.8-13.8H164c7.6,0,13.8,6.2,13.8,13.8v107
		C177.9,178.2,171.7,184.4,164,184.4z"/>
	<g>
		<path class="st1" d="M71.6,70.3h-0.8c-1.9,0-3.5-1.6-3.5-3.5V32.7c0-1.9,1.6-3.5,3.5-3.5h0.8c1.9,0,3.5,1.6,3.5,3.5v34.1
			C75.1,68.7,73.6,70.3,71.6,70.3z"/>
		<path class="st1" d="M106.3,70.3h-0.8c-1.9,0-3.5-1.6-3.5-3.5V32.7c0-1.9,1.6-3.5,3.5-3.5h0.8c1.9,0,3.5,1.6,3.5,3.5v34.1
			C109.8,68.7,108.3,70.3,106.3,70.3z"/>
		<path class="st1" d="M141,70.3h-0.8c-1.9,0-3.5-1.6-3.5-3.5V32.7c0-1.9,1.6-3.5,3.5-3.5h0.8c1.9,0,3.5,1.6,3.5,3.5v34.1
			C144.5,68.7,143,70.3,141,70.3z"/>
	</g>
	<path class="st2" d="M97,158.3l-3-3c-1-1-1-2.5,0-3.5L147.8,98c1-1,2.5-1,3.5,0l3,3c1,1,1,2.5,0,3.5l-53.9,53.9
		C99.5,159.3,98,159.3,97,158.3z"/>
	<path class="st3" d="M103.8,155l-3.7,3.7c-1,1-2.5,1-3.5,0L62,124c-1-1-1-2.5,0-3.5l3.7-3.7c1-1,2.5-1,3.5,0l34.6,34.6
		C104.8,152.5,104.8,154,103.8,155z"/>
</g>
<g id="Dieline">
</g>
</svg>
